<?xml version="1.0" encoding="UTF-8" standalone="no"?>
<!-- Created with Inkscape (http://www.inkscape.org/) -->

<svg
   xmlns:dc="http://purl.org/dc/elements/1.1/"
   xmlns:cc="http://creativecommons.org/ns#"
   xmlns:rdf="http://www.w3.org/1999/02/22-rdf-syntax-ns#"
   xmlns:svg="http://www.w3.org/2000/svg"
   xmlns="http://www.w3.org/2000/svg"
   xmlns:sodipodi="http://sodipodi.sourceforge.net/DTD/sodipodi-0.dtd"
   xmlns:inkscape="http://www.inkscape.org/namespaces/inkscape"
   width="128"
   height="128"
   viewBox="0 0 128 128"
   id="svg2"
   version="1.1"
   inkscape:version="0.91 r"
   sodipodi:docname="autobahn asphalt.svg">
  <sodipodi:namedview
     id="base"
     pagecolor="#ffffff"
     bordercolor="#666666"
     borderopacity="1.0"
     inkscape:pageopacity="0.0"
     inkscape:pageshadow="2"
     inkscape:zoom="3.1930291"
     inkscape:cx="66.132697"
     inkscape:cy="63.62412"
     inkscape:document-units="px"
     inkscape:current-layer="layer1"
     showgrid="false"
     units="px"
     inkscape:window-width="1319"
     inkscape:window-height="744"
     inkscape:window-x="47"
     inkscape:window-y="24"
     inkscape:window-maximized="1" />
  <defs
     id="defs4" />
  <metadata
     id="metadata7">
    <rdf:RDF>
      <cc:Work
         rdf:about="">
        <dc:format>image/svg+xml</dc:format>
        <dc:type
           rdf:resource="http://purl.org/dc/dcmitype/StillImage" />
        <dc:title></dc:title>
      </cc:Work>
    </rdf:RDF>
  </metadata>
  <g
     transform="translate(0,-924.36216)"
     id="layer1"
     inkscape:groupmode="layer"
     inkscape:label="Ebene 1">
    <g
       id="g3605">
      <path
         inkscape:connector-curvature="0"
         style="opacity:1;fill:#333333;fill-opacity:1;stroke:none;stroke-width:3.1500001;stroke-miterlimit:4;stroke-dasharray:none;stroke-opacity:1"
         d="M41.24721 922.74127C41.24721 922.74127 85.18557 922.74127 85.18557 922.74127C85.18557 922.74127 129.34427 1053.6149 129.34427 1053.6149C129.34427 1053.6149 -1.252729 1053.3017 -1.252729 1053.3017C-1.252729 1053.3017 41.24721 922.74127 41.24721 922.74127"
         id="rect3336" />
      <path
         id="rect3340"
         d="M42.9622231277 922.74127C42.9622231277 922.74127 46.3925733135 922.74127 46.3925733135 922.74127C46.3925733135 922.74127 14.0192642613 1053.33832556 14.0192642613 1053.33832556C14.0192642613 1053.33832556 3.83698355687 1053.31390624 3.83698355687 1053.31390624C3.83698355687 1053.31390624 42.9622231277 922.74127 42.9622231277 922.74127"
         style="opacity:1;fill:#ffffff;fill-opacity:1;stroke:none;stroke-width:3.1500001;stroke-miterlimit:4;stroke-dasharray:none;stroke-opacity:1" />
      <path
         id="rect3340-6"
         d="M80.0328779269 922.74127C80.0328779269 922.74127 83.4678977647 922.74127 83.4678977647 922.74127C83.4678977647 922.74127 124.231066066 1053.60263743 124.231066066 1053.60263743C124.231066066 1053.60263743 114.007532235 1053.57811917 114.007532235 1053.57811917C114.007532235 1053.57811917 80.0328779269 922.74127 80.0328779269 922.74127"
         style="opacity:1;fill:#ffffff;fill-opacity:1;stroke:none;stroke-width:3.1500001;stroke-miterlimit:4;stroke-dasharray:none;stroke-opacity:1" />
      <path
         id="rect3357"
         d="M62.1498675935 925.608849058C62.1498675935 925.608849058 64.2985904057 925.608962107 64.2985904057 925.608962107C64.2985904057 925.608962107 64.6433215767 941.754139145 64.6433215767 941.754139145C64.6433215767 941.754139145 61.9928947818 941.753214627 61.9928947818 941.753214627C61.9928947818 941.753214627 62.1498675935 925.608849058 62.1498675935 925.608849058"
         style="opacity:1;fill:#ffffff;fill-opacity:1;stroke:none;stroke-width:3.1500001;stroke-miterlimit:4;stroke-dasharray:none;stroke-opacity:1" />
      <path
         id="rect3357-7"
         d="M61.9006868085 951.236635439C61.9006868085 951.236635439 64.8458243332 951.2381752 64.8458243332 951.2381752C64.8458243332 951.2381752 65.5548270236 984.443684073 65.5548270236 984.443684073C65.5548270236 984.443684073 61.5778560916 984.439182141 61.5778560916 984.439182141C61.5778560916 984.439182141 61.9006868085 951.236635439 61.9006868085 951.236635439"
         style="opacity:1;fill:#ffffff;fill-opacity:1;stroke:none;stroke-width:3.1500001;stroke-miterlimit:4;stroke-dasharray:none;stroke-opacity:1" />
      <path
         style="opacity:1;fill:#ffffff;fill-opacity:1;stroke:none;stroke-width:3.1500001;stroke-miterlimit:4;stroke-dasharray:none;stroke-opacity:1"
         d="M61.3580229487 1007.0486174C61.3580229487 1007.0486174 66.0376412089 1007.05585598 66.0376412089 1007.05585598C66.0376412089 1007.05585598 67.0285770674 1053.46545342 67.0285770674 1053.46545342C67.0285770674 1053.46545342 60.906851506 1053.45077219 60.906851506 1053.45077219C60.906851506 1053.45077219 61.3580229487 1007.0486174 61.3580229487 1007.0486174"
         id="rect3357-7-0"
         inkscape:connector-curvature="0" />
    </g>
  </g>
</svg>
